<svg xmlns="http://www.w3.org/2000/svg" viewBox="0 0 124.21 112.66"><defs><style>.cls-1,.cls-3,.cls-5,.cls-6{fill:#1e5998;}.cls-2{fill:none;stroke:#10294c;stroke-miterlimit:10;}.cls-3,.cls-5{font-size:8.8px;font-family:Calibri-Light, Calibri;font-weight:300;}.cls-3{letter-spacing:0.07em;}.cls-4{letter-spacing:0.06em;}.cls-5{letter-spacing:0.07em;}.cls-6{font-size:13px;font-family:Calibri;}</style></defs><g id="Layer_2" data-name="Layer 2"><g id="Layer_1-2" data-name="Layer 1"><g id="Layer_1-2-2" data-name="Layer 1-2"><path class="cls-1" d="M88.24,56a16.51,16.51,0,0,1-2.62,5.09h0a16.53,16.53,0,0,1-2.39,2.56,22.47,22.47,0,0,0-3.58,3.78c-.26.35-.52.71-.76,1.08-1.18,1.68-.51,3.53.35,5.16s.48,5-.9,5.91c-1,.59-1.84,1.37-2.73,1.93a1.36,1.36,0,0,0-.49,1.79c.74,2,.57,2.34-1.15,3.34h0l0,0a1.39,1.39,0,0,0-.62.89,7,7,0,0,1-1.36,3.21c-.43-1-.88-2-1.37-3l-.39-.79-1.08-2.16a.4.4,0,0,1,0-.56,1.24,1.24,0,0,0,.23-1.65c-.29-.42-.63-.82-.92-1.23a9,9,0,0,1-.71-1.1c-.41-.84-.71-1.72-1.17-2.52-.9-1.55-1.88-3-2.83-4.57a1,1,0,0,1-.16-.35,9.73,9.73,0,0,0-1-3c-.61-1.24-1.23-2.49-1.92-3.71l0-.08c-.69-1.19-1.43-2.34-2.13-3.53a1.9,1.9,0,0,1-.3-1.93,4.92,4.92,0,0,1,.75-1.11.48.48,0,0,0,.13-.63l-.33-.64c-.31-.63-.63-1.25-1-1.87a.64.64,0,0,1-.07-.57,19.34,19.34,0,0,1,1.23-3,22.78,22.78,0,0,0,1.76-5,4.79,4.79,0,0,1,.33-.92,2.48,2.48,0,0,1,.59-.78c.73-.6,1.51-1.14,2.28-1.73l1.36-1a.43.43,0,0,0,.07-.22c0-.3.14-.32.33-.33s.29-.08.22-.29a.25.25,0,0,1,0-.17c0-.25-.1-.51-.33-.5a1.88,1.88,0,0,0-.57.17c-.26.11-.51.24-.77.34-.5.2-1,.38-1.52.56h-.2v-.08a1.67,1.67,0,0,0,.38-.25c.1-.11.21-.27.18-.4a.31.31,0,0,0-.38-.22l-.06,0c-.23.11-.45.29-.68.41a1.5,1.5,0,0,1-.42.15,2.81,2.81,0,0,0-.86.18,2.51,2.51,0,0,0-.45.26c-.24.09-.4.1-.45-.24a1,1,0,0,0-.78-.88.78.78,0,0,0-.44.09c-.14.1,0,.28.1.41a2.12,2.12,0,0,1,.13.51,10.29,10.29,0,0,0,0,1.36,2.6,2.6,0,0,1-.45,1.89c-.09.17-.21.36-.31.56a18,18,0,0,1-1.78,2.73,8.18,8.18,0,0,0-1.81,3.4,3.08,3.08,0,0,1-.26,1,3.42,3.42,0,0,0-.49,1.37,2.94,2.94,0,0,1-.73,1.5A2.84,2.84,0,0,0,52,55.13a.61.61,0,0,1-.17-.6c.09-.52-.17-1-.78-.88a2.34,2.34,0,0,1-.45-.07v-.64l-.21.16a1.89,1.89,0,0,0-.21-.51c-.4-.58-.8-1.15-1.23-1.68a3.63,3.63,0,0,0-2.73-1.37,6.79,6.79,0,0,0-4,1.12,14.76,14.76,0,0,0-3.55,3.59A5.87,5.87,0,0,0,37.51,57a4.6,4.6,0,0,0,.4,2.37,5.14,5.14,0,0,1-2.37-2.6,3.28,3.28,0,0,0-1.14-1.36A4.6,4.6,0,0,1,33,49.84,4.17,4.17,0,0,0,33,47a2,2,0,0,1,.19-2.32c.83-1.36,1.66-2.65,2.55-3.93.17-.25.6-.29.88-.46.92-.63,2-1.07,1.92-2.57a3.18,3.18,0,0,1,1.11-1.83,19.87,19.87,0,0,1,2.16-1.72,12.86,12.86,0,0,0,4.09-.41c2.12-1,4.34-.82,6.53-1.08a28.63,28.63,0,0,1,2.93,0c-.12,1-.21,1.78-.36,3,.57.17,1.46.38,2.3.71.63.23,1.19.63,1.79.9,1,.47,2,.92,3.09,1.29a1.49,1.49,0,0,0,.68-.78c.38-1.37,1.18-1.61,2.4-1.15a22.54,22.54,0,0,0,5,1.47,19,19,0,0,0,4.19-.35c.61,1.24.88,2.21-.55,3.25l2.61,4.75a5.28,5.28,0,0,1,.27.53,39,39,0,0,0,2,4.8c.54.94,1.64,1.55,2.39,2.39.33.35.32,1,.66,1.36s1.15,1.09,1.68,1a47,47,0,0,0,4.87-.94A3.34,3.34,0,0,1,88.24,56Z"/><path class="cls-1" d="M91.57,76.41c-1.36,1.94-2.14,4.25-3.33,6.31a4.26,4.26,0,0,1-1.54,1.5,3.71,3.71,0,0,1-.53.26.56.56,0,0,1-.36,0h0c-.56-.13-1.36-.69-1.39-1-.12-1.23-.6-2.6.71-3.72a3.42,3.42,0,0,0,.67-2.18,2.37,2.37,0,0,1,2.07-2.47,18.32,18.32,0,0,0,4.26-2.48A4,4,0,0,1,91.57,76.41Z"/></g><path class="cls-2" d="M94.15,56.45h17.9a51.61,51.61,0,0,0-101.61,0H27.81"/><text class="cls-3" transform="translate(10.84 65.31)">E<tspan class="cls-4" x="4.92" y="0">s</tspan><tspan x="8.83" y="0">t </tspan></text><text class="cls-5" transform="translate(92.17 65.57)">2021</text><path class="cls-2" d="M94.2,69.61h17.9a51.61,51.61,0,0,1-101.61,0H27.86"/><text class="cls-6" transform="matrix(0.39, -0.92, 0.92, 0.39, 9.86, 47.21)">B</text><text class="cls-6" transform="translate(12.62 40.89) rotate(-61.91)">l</text><text class="cls-6" transform="translate(13.85 38.38) rotate(-56.95)">u</text><text class="cls-6" transform="translate(17.47 32.85) rotate(-50.6)">v</text><text class="cls-6" transform="matrix(0.71, -0.7, 0.7, 0.71, 20.9, 28.63)">a</text><text class="cls-6" transform="matrix(0.77, -0.64, 0.64, 0.77, 25.19, 24.4)">r</text><text class="cls-6" transform="matrix(0.83, -0.56, 0.56, 0.83, 28.35, 21.71)">d</text><text class="cls-6" transform="translate(33.92 18.04) rotate(-29.12)"> </text><text class="cls-6" transform="translate(36.29 16.63) rotate(-24.42)">E</text><text class="cls-6" transform="translate(41.65 14.15) rotate(-17.83)">d</text><text class="cls-6" transform="matrix(0.98, -0.18, 0.18, 0.98, 47.89, 12.12)">u</text><text class="cls-6" transform="matrix(1, -0.07, 0.07, 1, 54.37, 10.93)">c</text><text class="cls-6" transform="translate(59.53 10.53) rotate(1.81)">a</text><text class="cls-6" transform="translate(65.38 10.67) rotate(8.26)">ti</text><text class="cls-6" transform="translate(72.31 11.67) rotate(15.13)">o</text><text class="cls-6" transform="translate(78.68 13.38) rotate(21.77)">n</text><text class="cls-6" transform="translate(84.83 15.92) rotate(26.54)"> </text><text class="cls-6" transform="translate(87.37 17.18) rotate(29.61)">I</text><text class="cls-6" transform="matrix(0.82, 0.57, -0.57, 0.82, 90.09, 18.62)">n</text><text class="cls-6" transform="matrix(0.77, 0.64, -0.64, 0.77, 95.51, 22.45)">it</text><text class="cls-6" transform="translate(97.72 24.14) rotate(44.77)">ia</text><text class="cls-6" transform="translate(102.68 29.07) rotate(51.88)">t</text><text class="cls-6" transform="translate(106.33 33.64) rotate(59.04)">i</text><text class="cls-6" transform="translate(109.89 39.62) rotate(66.29)">v</text><text class="cls-6" transform="matrix(0.29, 0.96, -0.96, 0.29, 112.14, 44.63)">e</text></g></g></svg>