<svg xmlns="http://www.w3.org/2000/svg" viewBox="0 0 122 59"><g id="Layer_2" data-name="Layer 2"><g id="Layer_1-2" data-name="Layer 1"><circle cx="2" cy="2" r="2"/><circle cx="18.86" cy="2" r="2"/><circle cx="35.71" cy="2" r="2"/><circle cx="52.57" cy="2" r="2"/><circle cx="69.43" cy="2" r="2"/><circle cx="86.29" cy="2" r="2"/><circle cx="103.14" cy="2" r="2"/><circle cx="120" cy="2" r="2"/><circle cx="2" cy="21" r="2"/><circle cx="18.86" cy="21" r="2"/><circle cx="35.71" cy="21" r="2"/><circle cx="52.57" cy="21" r="2"/><circle cx="69.43" cy="21" r="2"/><circle cx="86.29" cy="21" r="2"/><circle cx="103.14" cy="21" r="2"/><circle cx="120" cy="21" r="2"/><circle cx="2" cy="38" r="2"/><circle cx="18.86" cy="38" r="2"/><circle cx="35.71" cy="38" r="2"/><circle cx="52.57" cy="38" r="2"/><circle cx="69.43" cy="38" r="2"/><circle cx="86.29" cy="38" r="2"/><circle cx="103.14" cy="38" r="2"/><circle cx="120" cy="38" r="2"/><circle cx="2" cy="57" r="2"/><circle cx="18.86" cy="57" r="2"/><circle cx="35.71" cy="57" r="2"/><circle cx="52.57" cy="57" r="2"/><circle cx="69.43" cy="57" r="2"/><circle cx="86.29" cy="57" r="2"/><circle cx="103.14" cy="57" r="2"/><circle cx="120" cy="57" r="2"/></g></g></svg>